<?xml version="1.0" encoding="iso-8859-1"?>
<!-- Generator: Adobe Illustrator 19.0.0, SVG Export Plug-In . SVG Version: 6.00 Build 0)  -->
<svg version="1.1" id="Layer_1" xmlns="http://www.w3.org/2000/svg" xmlns:xlink="http://www.w3.org/1999/xlink" x="0px" y="0px"
	 viewBox="0 0 512 512" style="enable-background:new 0 0 512 512;" xml:space="preserve">
<path style="fill:#E9EBEF;" d="M12.8,166.4v268.8c0,35.294,28.706,64,64,64h358.4c35.294,0,64-28.706,64-64V166.4H12.8z"/>
<g>
	<circle style="fill:#FEDEA1;" cx="115.2" cy="268.8" r="25.6"/>
	<circle style="fill:#FEDEA1;" cx="256" cy="268.8" r="25.6"/>
	<circle style="fill:#FEDEA1;" cx="396.8" cy="268.8" r="25.6"/>
	<circle style="fill:#FEDEA1;" cx="115.2" cy="396.8" r="25.6"/>
	<circle style="fill:#FEDEA1;" cx="256" cy="396.8" r="25.6"/>
	<circle style="fill:#FEDEA1;" cx="396.8" cy="396.8" r="25.6"/>
</g>
<rect x="12.8" y="64" style="fill:#FF877F;" width="486.4" height="102.4"/>
<g>
	<path style="fill:#573A32;" d="M76.8,512h358.4c42.419,0,76.8-34.381,76.8-76.8V64c0-7.066-5.734-12.8-12.8-12.8H448V12.8
		C448,5.734,442.266,0,435.2,0c-7.066,0-12.8,5.734-12.8,12.8v38.4h-64V12.8c0-7.066-5.734-12.8-12.8-12.8
		c-7.066,0-12.8,5.734-12.8,12.8v38.4h-64V12.8C268.8,5.734,263.066,0,256,0c-7.066,0-12.8,5.734-12.8,12.8v38.4h-64V12.8
		c0-7.066-5.734-12.8-12.8-12.8s-12.8,5.734-12.8,12.8v38.4h-64V12.8C89.6,5.734,83.866,0,76.8,0C69.734,0,64,5.734,64,12.8v38.4
		H12.8C5.734,51.2,0,56.934,0,64v371.2C0,477.619,34.381,512,76.8,512z M25.6,76.8H64v38.4c0,7.066,5.734,12.8,12.8,12.8
		c7.066,0,12.8-5.734,12.8-12.8V76.8h64v38.4c0,7.066,5.734,12.8,12.8,12.8s12.8-5.734,12.8-12.8V76.8h64v38.4
		c0,7.066,5.734,12.8,12.8,12.8c7.066,0,12.8-5.734,12.8-12.8V76.8h64v38.4c0,7.066,5.734,12.8,12.8,12.8
		c7.066,0,12.8-5.734,12.8-12.8V76.8h64v38.4c0,7.066,5.734,12.8,12.8,12.8c7.066,0,12.8-5.734,12.8-12.8V76.8h38.4v76.8H25.6V76.8z
		 M25.6,179.2h460.8v256c0,28.228-22.972,51.2-51.2,51.2H76.8c-28.228,0-51.2-22.972-51.2-51.2V179.2z"/>
	<path style="fill:#573A32;" d="M115.2,307.2c21.205,0,38.4-17.195,38.4-38.4s-17.195-38.4-38.4-38.4s-38.4,17.195-38.4,38.4
		S93.995,307.2,115.2,307.2z M115.2,256c7.057,0,12.8,5.743,12.8,12.8s-5.743,12.8-12.8,12.8c-7.057,0-12.8-5.743-12.8-12.8
		S108.143,256,115.2,256z"/>
	<path style="fill:#573A32;" d="M256,307.2c21.205,0,38.4-17.195,38.4-38.4s-17.195-38.4-38.4-38.4c-21.205,0-38.4,17.195-38.4,38.4
		S234.795,307.2,256,307.2z M256,256c7.057,0,12.8,5.743,12.8,12.8s-5.743,12.8-12.8,12.8c-7.057,0-12.8-5.743-12.8-12.8
		S248.943,256,256,256z"/>
	<path style="fill:#573A32;" d="M396.8,307.2c21.205,0,38.4-17.195,38.4-38.4s-17.195-38.4-38.4-38.4
		c-21.205,0-38.4,17.195-38.4,38.4S375.595,307.2,396.8,307.2z M396.8,256c7.057,0,12.8,5.743,12.8,12.8s-5.743,12.8-12.8,12.8
		s-12.8-5.743-12.8-12.8S389.743,256,396.8,256z"/>
	<path style="fill:#573A32;" d="M115.2,435.2c21.205,0,38.4-17.195,38.4-38.4c0-21.205-17.195-38.4-38.4-38.4
		s-38.4,17.195-38.4,38.4C76.8,418.005,93.995,435.2,115.2,435.2z M115.2,384c7.057,0,12.8,5.743,12.8,12.8s-5.743,12.8-12.8,12.8
		c-7.057,0-12.8-5.743-12.8-12.8S108.143,384,115.2,384z"/>
	<path style="fill:#573A32;" d="M256,435.2c21.205,0,38.4-17.195,38.4-38.4c0-21.205-17.195-38.4-38.4-38.4
		c-21.205,0-38.4,17.195-38.4,38.4C217.6,418.005,234.795,435.2,256,435.2z M256,384c7.057,0,12.8,5.743,12.8,12.8
		s-5.743,12.8-12.8,12.8c-7.057,0-12.8-5.743-12.8-12.8S248.943,384,256,384z"/>
	<path style="fill:#573A32;" d="M396.8,435.2c21.205,0,38.4-17.195,38.4-38.4c0-21.205-17.195-38.4-38.4-38.4
		c-21.205,0-38.4,17.195-38.4,38.4C358.4,418.005,375.595,435.2,396.8,435.2z M396.8,384c7.057,0,12.8,5.743,12.8,12.8
		s-5.743,12.8-12.8,12.8s-12.8-5.743-12.8-12.8S389.743,384,396.8,384z"/>
</g>
<g>
</g>
<g>
</g>
<g>
</g>
<g>
</g>
<g>
</g>
<g>
</g>
<g>
</g>
<g>
</g>
<g>
</g>
<g>
</g>
<g>
</g>
<g>
</g>
<g>
</g>
<g>
</g>
<g>
</g>
</svg>
