<?xml version="1.0" encoding="iso-8859-1"?>
<!-- Generator: Adobe Illustrator 19.0.0, SVG Export Plug-In . SVG Version: 6.00 Build 0)  -->
<svg version="1.1" id="Capa_1" xmlns="http://www.w3.org/2000/svg" xmlns:xlink="http://www.w3.org/1999/xlink" x="0px" y="0px"
	 viewBox="0 0 480.048 480.048" style="enable-background:new 0 0 480.048 480.048;" xml:space="preserve">
<path style="fill:#F6F6E7;" d="M128.024,72.048h-72v360l40,40h248v-400h-72H128.024z"/>
<g>
	<path style="fill:#5A6570;" d="M104.024,152.048c-8.837,0-16-7.163-16-16s7.163-16,16-16s16,7.163,16,16
		S112.86,152.048,104.024,152.048z"/>
	<path style="fill:#5A6570;" d="M104.024,200.048c-8.837,0-16-7.163-16-16s7.163-16,16-16s16,7.163,16,16
		S112.86,200.048,104.024,200.048z"/>
	<path style="fill:#5A6570;" d="M104.024,248.048c-8.837,0-16-7.163-16-16c0-8.837,7.163-16,16-16s16,7.163,16,16
		C120.024,240.884,112.86,248.048,104.024,248.048z"/>
</g>
<path style="fill:#FFD884;" d="M232.024,40.048c0-17.673-14.327-32-32-32s-32,14.327-32,32h-40v56h144v-56H232.024z"/>
<path style="fill:#E3472C;" d="M385.4,142.672L264.024,264.048v32h32L417.4,174.672c4.243-4.244,6.625-9.999,6.624-16
	c0-12.495-10.129-22.624-22.624-22.624C395.399,136.048,389.644,138.43,385.4,142.672z"/>
<path style="fill:#FFD884;" d="M424.024,158.672c0.003-12.495-10.124-22.626-22.619-22.629c-6.003-0.001-11.761,2.383-16.005,6.629
	l-13.376,13.376l32,32l13.376-13.376C421.642,170.428,424.025,164.673,424.024,158.672z"/>
<path style="fill:#88D0EF;" d="M264.024,264.048v32h32l16-16l-32-32L264.024,264.048z"/>
<path style="fill:#2BB3CE;" d="M96.024,280.048h96v112h-96V280.048z"/>
<g>
	<path style="fill:#5A6570;" d="M304.024,336.048h-80c-4.418,0-8-3.582-8-8s3.582-8,8-8h80c4.418,0,8,3.582,8,8
		S308.442,336.048,304.024,336.048z"/>
	<path style="fill:#5A6570;" d="M304.024,368.048h-80c-4.418,0-8-3.582-8-8s3.582-8,8-8h80c4.418,0,8,3.582,8,8
		S308.442,368.048,304.024,368.048z"/>
	<path style="fill:#5A6570;" d="M232.024,240.048h-88c-4.418,0-8-3.582-8-8s3.582-8,8-8h88c4.418,0,8,3.582,8,8
		S236.442,240.048,232.024,240.048z"/>
	<path style="fill:#5A6570;" d="M304.024,400.048h-80c-4.418,0-8-3.582-8-8s3.582-8,8-8h80c4.418,0,8,3.582,8,8
		S308.442,400.048,304.024,400.048z"/>
	<path style="fill:#5A6570;" d="M296.024,144.048h-152c-4.418,0-8-3.582-8-8s3.582-8,8-8h152c4.418,0,8,3.582,8,8
		S300.442,144.048,296.024,144.048z"/>
	<path style="fill:#5A6570;" d="M280.024,192.048h-136c-4.418,0-8-3.582-8-8s3.582-8,8-8h136c4.418,0,8,3.582,8,8
		S284.442,192.048,280.024,192.048z"/>
</g>
<path style="fill:#FFD884;" d="M96.024,432.048v40l-40-40H96.024z"/>
<path style="fill:#7D8F9F;" d="M357.68,130.392c-3.124-3.123-8.188-3.123-11.312,0l-40,40c-3.069,3.178-2.982,8.243,0.196,11.312
	c3.1,2.994,8.015,2.994,11.116,0l34.344-34.344l46.344,46.344l11.312-11.312L357.68,130.392z"/>
<circle cx="104.024" cy="136.048" r="16"/>
<circle cx="104.024" cy="184.048" r="16"/>
<circle cx="104.024" cy="232.048" r="16"/>
<path d="M272.024,32.048h-32.8c-4.396-21.65-25.51-35.636-47.16-31.24c-15.741,3.196-28.044,15.499-31.24,31.24h-32.8
	c-4.418,0-8,3.582-8,8v24h-64c-4.418,0-8,3.582-8,8v360c0,2.122,0.844,4.156,2.344,5.656l40,40c1.5,1.5,3.534,2.344,5.656,2.344h248
	c4.418,0,8-3.582,8-8v-168c0-4.418-3.582-8-8-8s-8,3.582-8,8v160h-224v-40c0-4.418-3.582-8-8-8h-40v-336h56v16c0,4.418,3.582,8,8,8
	h144c4.418,0,8-3.582,8-8v-16h56v24c0,4.418,3.582,8,8,8s8-3.582,8-8v-32c0-4.418-3.582-8-8-8h-64v-24
	C280.024,35.63,276.442,32.048,272.024,32.048L272.024,32.048z M96.024,432.048v28.688l-28.688-28.688H96.024z M264.024,88.048h-128
	v-40h32c4.418,0,8-3.582,8-8c0-13.255,10.745-24,24-24c13.255,0,24,10.745,24,24c0,4.418,3.582,8,8,8h32V88.048z"/>
<path d="M432.024,158.68c0.006-16.913-13.7-30.629-30.613-30.635c-8.131-0.003-15.928,3.227-21.675,8.979l-7.712,7.712
	l-14.344-14.344c-3.124-3.123-8.188-3.123-11.312,0l-40,40c-3.069,3.178-2.982,8.243,0.196,11.312c3.1,2.994,8.015,2.994,11.116,0
	l34.344-34.344l8.688,8.688L258.368,258.392c-1.5,1.5-2.344,3.534-2.344,5.656v32c0,4.418,3.582,8,8,8h32
	c2.122,0,4.156-0.844,5.656-2.344l121.376-121.368C428.815,174.603,432.044,166.806,432.024,158.68L432.024,158.68z
	 M292.712,288.048h-20.688V267.36l8-8l20.688,20.688L292.712,288.048z M312.024,268.736l-20.688-20.688l80.688-80.688l20.688,20.688
	L312.024,268.736z M411.736,169.024l-7.712,7.712l-20.688-20.688l7.72-7.712c2.733-2.755,6.456-4.3,10.336-4.288
	c8.081,0.003,14.63,6.556,14.627,14.637C416.018,162.563,414.477,166.281,411.736,169.024z"/>
<path d="M88.024,392.048c0,4.418,3.582,8,8,8h96c4.418,0,8-3.582,8-8v-112c0-4.418-3.582-8-8-8h-96c-4.418,0-8,3.582-8,8V392.048z
	 M104.024,288.048h80v96h-80V288.048z"/>
<path d="M304.024,320.048h-80c-4.418,0-8,3.582-8,8s3.582,8,8,8h80c4.418,0,8-3.582,8-8S308.442,320.048,304.024,320.048z"/>
<path d="M304.024,352.048h-80c-4.418,0-8,3.582-8,8s3.582,8,8,8h80c4.418,0,8-3.582,8-8S308.442,352.048,304.024,352.048z"/>
<path d="M232.024,224.048h-88c-4.418,0-8,3.582-8,8s3.582,8,8,8h88c4.418,0,8-3.582,8-8S236.442,224.048,232.024,224.048z"/>
<path d="M304.024,384.048h-80c-4.418,0-8,3.582-8,8s3.582,8,8,8h80c4.418,0,8-3.582,8-8S308.442,384.048,304.024,384.048z"/>
<path d="M304.024,136.048c0-4.418-3.582-8-8-8h-152c-4.418,0-8,3.582-8,8s3.582,8,8,8h152
	C300.442,144.048,304.024,140.466,304.024,136.048z"/>
<path d="M288.024,184.048c0-4.418-3.582-8-8-8h-136c-4.418,0-8,3.582-8,8s3.582,8,8,8h136
	C284.442,192.048,288.024,188.466,288.024,184.048z"/>
<g>
</g>
<g>
</g>
<g>
</g>
<g>
</g>
<g>
</g>
<g>
</g>
<g>
</g>
<g>
</g>
<g>
</g>
<g>
</g>
<g>
</g>
<g>
</g>
<g>
</g>
<g>
</g>
<g>
</g>
</svg>
