<?xml version="1.0" encoding="iso-8859-1"?>
<!-- Generator: Adobe Illustrator 19.0.0, SVG Export Plug-In . SVG Version: 6.00 Build 0)  -->
<svg version="1.1" id="Layer_1" xmlns="http://www.w3.org/2000/svg" xmlns:xlink="http://www.w3.org/1999/xlink" x="0px" y="0px"
	 viewBox="0 0 512 512" style="enable-background:new 0 0 512 512;" xml:space="preserve">
<path style="fill:#D3D7DF;" d="M422.4,499.2v-256h-128v256h-256V166.4h435.2v332.8H422.4z M243.2,448V243.2H89.6V448H243.2z"/>
<rect x="376.32" y="102.4" style="fill:#FEDEA1;" width="122.88" height="64"/>
<polygon style="fill:#FEEBC7;" points="135.68,102.4 158.071,12.8 256,12.8 256,102.4 "/>
<rect x="256" y="102.4" style="fill:#FF877F;" width="120.32" height="64"/>
<polygon style="fill:#FEEBC7;" points="376.704,102.4 353.911,12.8 470.025,12.8 499.9,102.4 "/>
<rect x="135.68" y="102.4" style="fill:#FEDEA1;" width="120.32" height="64"/>
<polygon style="fill:#FF9F99;" points="256,102.4 256,12.8 353.929,12.8 376.32,102.4 "/>
<rect x="12.8" y="102.4" style="fill:#FF877F;" width="122.88" height="64"/>
<rect x="294.4" y="243.2" style="fill:#A0BF7C;" width="128" height="256"/>
<polygon style="fill:#FF9F99;" points="12.1,102.4 41.975,12.8 158.089,12.8 135.296,102.4 "/>
<rect x="89.6" y="243.2" style="fill:#A9D0D3;" width="153.6" height="204.8"/>
<g>
	<path style="fill:#573A32;" d="M256,230.4H76.8v230.4H256V230.4z M230.4,435.2h-128V256h128V435.2z"/>
	<path style="fill:#573A32;" d="M512,153.6v-51.209c0-2.756-0.444-5.487-1.314-8.098l-25.6-76.791C481.604,7.049,471.817,0,460.8,0
		H51.2C40.183,0,30.396,7.049,26.914,17.502l-25.6,76.791C0.444,96.905,0,99.635,0,102.391V153.6c0,14.14,11.46,25.6,25.6,25.6
		v307.2H12.8c-7.074,0-12.8,5.726-12.8,12.8c0,7.074,5.726,12.8,12.8,12.8h486.4c7.074,0,12.8-5.726,12.8-12.8
		c0-7.074-5.726-12.8-12.8-12.8h-12.8V179.2C500.54,179.2,512,167.74,512,153.6z M460.8,25.6l21.333,64h-95.479l-16.282-64H460.8z
		 M268.8,25.6h75.127l16,64H268.8V25.6z M268.8,115.2h94.72v38.4H268.8V115.2z M168.073,25.6H243.2v64h-91.127L168.073,25.6z
		 M148.48,115.2h94.72v38.4h-94.72V115.2z M51.2,25.6h90.428l-16.282,64H29.867L51.2,25.6z M25.6,115.2h97.28v38.4H51.2H25.6V115.2z
		 M409.6,486.4H307.2V384h25.6v-25.6h-25.6V256h102.4V486.4z M460.8,486.4h-25.6v-256H281.6v256H51.2V179.2h409.6V486.4z
		 M460.8,153.6h-71.68v-38.4h97.28v38.4H460.8z"/>
</g>
<g>
</g>
<g>
</g>
<g>
</g>
<g>
</g>
<g>
</g>
<g>
</g>
<g>
</g>
<g>
</g>
<g>
</g>
<g>
</g>
<g>
</g>
<g>
</g>
<g>
</g>
<g>
</g>
<g>
</g>
</svg>
